<mxfile host="Electron" agent="Mozilla/5.0 (Macintosh; Intel Mac OS X 10_15_7) AppleWebKit/537.36 (KHTML, like Gecko) draw.io/26.0.9 Chrome/128.0.6613.186 Electron/32.2.5 Safari/537.36" version="26.0.9">
  <diagram name="Страница — 1" id="tZMDDcrX6epztHfPYNHw">
    <mxGraphModel dx="1225" dy="2493" grid="1" gridSize="10" guides="1" tooltips="1" connect="1" arrows="1" fold="1" page="1" pageScale="1" pageWidth="827" pageHeight="1169" math="0" shadow="0">
      <root>
        <mxCell id="0" />
        <mxCell id="1" parent="0" />
        <mxCell id="7HvIkFNTZdIT3L6Ro3NP-1" value="" style="rounded=1;whiteSpace=wrap;html=1;fillColor=light-dark(#97D077,var(--ge-dark-color, #121212));" vertex="1" parent="1">
          <mxGeometry x="1580" y="-610" width="240" height="190" as="geometry" />
        </mxCell>
        <mxCell id="7HvIkFNTZdIT3L6Ro3NP-2" value="" style="rounded=1;whiteSpace=wrap;html=1;fillColor=light-dark(#A680B8,var(--ge-dark-color, #121212));" vertex="1" parent="1">
          <mxGeometry x="2260" y="-350" width="370" height="210" as="geometry" />
        </mxCell>
        <mxCell id="7HvIkFNTZdIT3L6Ro3NP-3" value="" style="rounded=1;whiteSpace=wrap;html=1;fillColor=light-dark(#E6E6E6,var(--ge-dark-color, #121212));" vertex="1" parent="1">
          <mxGeometry x="1900" y="-830" width="650" height="410" as="geometry" />
        </mxCell>
        <mxCell id="7HvIkFNTZdIT3L6Ro3NP-4" value="" style="rounded=1;whiteSpace=wrap;html=1;fillColor=light-dark(#97D077,var(--ge-dark-color, #121212));" vertex="1" parent="1">
          <mxGeometry x="1890" y="-350" width="310" height="220" as="geometry" />
        </mxCell>
        <mxCell id="7HvIkFNTZdIT3L6Ro3NP-5" value="" style="rounded=1;whiteSpace=wrap;html=1;fillColor=light-dark(#A680B8,var(--ge-dark-color, #121212));" vertex="1" parent="1">
          <mxGeometry x="2100" y="-1110" width="270" height="180" as="geometry" />
        </mxCell>
        <mxCell id="7HvIkFNTZdIT3L6Ro3NP-6" value="" style="rounded=1;whiteSpace=wrap;html=1;fillColor=light-dark(#A680B8,var(--ge-dark-color, #121212));" vertex="1" parent="1">
          <mxGeometry x="1580" y="-830" width="240" height="160" as="geometry" />
        </mxCell>
        <mxCell id="7HvIkFNTZdIT3L6Ro3NP-7" value="Привлечение клиентов" style="text;html=1;align=center;verticalAlign=middle;whiteSpace=wrap;rounded=0;" vertex="1" parent="1">
          <mxGeometry x="1580" y="-830" width="100" height="60" as="geometry" />
        </mxCell>
        <mxCell id="7HvIkFNTZdIT3L6Ro3NP-8" style="edgeStyle=orthogonalEdgeStyle;rounded=0;orthogonalLoop=1;jettySize=auto;html=1;entryX=0;entryY=0.25;entryDx=0;entryDy=0;curved=1;" edge="1" parent="1" source="7HvIkFNTZdIT3L6Ro3NP-9" target="7HvIkFNTZdIT3L6Ro3NP-29">
          <mxGeometry relative="1" as="geometry" />
        </mxCell>
        <mxCell id="7HvIkFNTZdIT3L6Ro3NP-9" value="Интеграция с аккаунтами из&lt;div&gt;HCB&lt;/div&gt;" style="rounded=1;whiteSpace=wrap;html=1;" vertex="1" parent="1">
          <mxGeometry x="1640" y="-760" width="120" height="60" as="geometry" />
        </mxCell>
        <mxCell id="7HvIkFNTZdIT3L6Ro3NP-10" value="Отбор котов-воркеров" style="text;html=1;align=center;verticalAlign=middle;whiteSpace=wrap;rounded=0;" vertex="1" parent="1">
          <mxGeometry x="1580" y="-610" width="100" height="40" as="geometry" />
        </mxCell>
        <mxCell id="7HvIkFNTZdIT3L6Ro3NP-11" style="edgeStyle=orthogonalEdgeStyle;rounded=0;orthogonalLoop=1;jettySize=auto;html=1;entryX=0;entryY=0.5;entryDx=0;entryDy=0;curved=1;" edge="1" parent="1" source="7HvIkFNTZdIT3L6Ro3NP-12" target="7HvIkFNTZdIT3L6Ro3NP-15">
          <mxGeometry relative="1" as="geometry">
            <Array as="points">
              <mxPoint x="1710" y="-240" />
            </Array>
          </mxGeometry>
        </mxCell>
        <mxCell id="7HvIkFNTZdIT3L6Ro3NP-12" value="Отбор и найм воркеров" style="rounded=1;whiteSpace=wrap;html=1;" vertex="1" parent="1">
          <mxGeometry x="1640" y="-530" width="120" height="60" as="geometry" />
        </mxCell>
        <mxCell id="7HvIkFNTZdIT3L6Ro3NP-13" value="Эффективный матчинг воркеров и заказов" style="text;html=1;align=center;verticalAlign=middle;whiteSpace=wrap;rounded=0;" vertex="1" parent="1">
          <mxGeometry x="1890" y="-350" width="130" height="50" as="geometry" />
        </mxCell>
        <mxCell id="7HvIkFNTZdIT3L6Ro3NP-14" style="edgeStyle=orthogonalEdgeStyle;rounded=0;orthogonalLoop=1;jettySize=auto;html=1;exitX=1;exitY=0.5;exitDx=0;exitDy=0;entryX=0.5;entryY=1;entryDx=0;entryDy=0;curved=1;" edge="1" parent="1" source="7HvIkFNTZdIT3L6Ro3NP-15" target="7HvIkFNTZdIT3L6Ro3NP-17">
          <mxGeometry relative="1" as="geometry">
            <Array as="points">
              <mxPoint x="2070" y="-240" />
              <mxPoint x="2070" y="-380" />
              <mxPoint x="2360" y="-380" />
              <mxPoint x="2360" y="-440" />
              <mxPoint x="2420" y="-440" />
            </Array>
          </mxGeometry>
        </mxCell>
        <mxCell id="7HvIkFNTZdIT3L6Ro3NP-15" value="Алгоритмы матчинга воркеров и заказов" style="rounded=1;whiteSpace=wrap;html=1;" vertex="1" parent="1">
          <mxGeometry x="1900" y="-270" width="120" height="60" as="geometry" />
        </mxCell>
        <mxCell id="7HvIkFNTZdIT3L6Ro3NP-16" style="edgeStyle=orthogonalEdgeStyle;rounded=0;orthogonalLoop=1;jettySize=auto;html=1;exitX=0;exitY=0.5;exitDx=0;exitDy=0;entryX=1;entryY=0.75;entryDx=0;entryDy=0;curved=1;" edge="1" parent="1" source="7HvIkFNTZdIT3L6Ro3NP-17" target="7HvIkFNTZdIT3L6Ro3NP-29">
          <mxGeometry relative="1" as="geometry" />
        </mxCell>
        <mxCell id="7HvIkFNTZdIT3L6Ro3NP-17" value="Аналитика по заказам" style="rounded=1;whiteSpace=wrap;html=1;" vertex="1" parent="1">
          <mxGeometry x="2360" y="-530" width="120" height="60" as="geometry" />
        </mxCell>
        <mxCell id="7HvIkFNTZdIT3L6Ro3NP-18" value="Управление заказами" style="text;html=1;align=center;verticalAlign=middle;whiteSpace=wrap;rounded=0;" vertex="1" parent="1">
          <mxGeometry x="1890" y="-830" width="160" height="80" as="geometry" />
        </mxCell>
        <mxCell id="7HvIkFNTZdIT3L6Ro3NP-19" value="Сборка расходников для заказа" style="text;html=1;align=center;verticalAlign=middle;whiteSpace=wrap;rounded=0;" vertex="1" parent="1">
          <mxGeometry x="2260" y="-350" width="140" height="60" as="geometry" />
        </mxCell>
        <mxCell id="7HvIkFNTZdIT3L6Ro3NP-20" style="edgeStyle=orthogonalEdgeStyle;rounded=0;orthogonalLoop=1;jettySize=auto;html=1;entryX=0;entryY=0.5;entryDx=0;entryDy=0;" edge="1" parent="1" source="7HvIkFNTZdIT3L6Ro3NP-21" target="7HvIkFNTZdIT3L6Ro3NP-32">
          <mxGeometry relative="1" as="geometry" />
        </mxCell>
        <mxCell id="7HvIkFNTZdIT3L6Ro3NP-21" value="Склад расходников" style="rounded=1;whiteSpace=wrap;html=1;" vertex="1" parent="1">
          <mxGeometry x="2280" y="-270" width="120" height="60" as="geometry" />
        </mxCell>
        <mxCell id="7HvIkFNTZdIT3L6Ro3NP-22" value="Мотивация менеджеров" style="text;html=1;align=center;verticalAlign=middle;whiteSpace=wrap;rounded=0;" vertex="1" parent="1">
          <mxGeometry x="2100" y="-1110" width="120" height="40" as="geometry" />
        </mxCell>
        <mxCell id="7HvIkFNTZdIT3L6Ro3NP-23" value="Тотализатор" style="rounded=1;whiteSpace=wrap;html=1;" vertex="1" parent="1">
          <mxGeometry x="2180" y="-1040" width="120" height="60" as="geometry" />
        </mxCell>
        <mxCell id="7HvIkFNTZdIT3L6Ro3NP-24" style="edgeStyle=orthogonalEdgeStyle;rounded=0;orthogonalLoop=1;jettySize=auto;html=1;entryX=0.5;entryY=0;entryDx=0;entryDy=0;curved=1;" edge="1" parent="1" source="7HvIkFNTZdIT3L6Ro3NP-29" target="7HvIkFNTZdIT3L6Ro3NP-15">
          <mxGeometry relative="1" as="geometry" />
        </mxCell>
        <mxCell id="7HvIkFNTZdIT3L6Ro3NP-25" style="edgeStyle=orthogonalEdgeStyle;rounded=0;orthogonalLoop=1;jettySize=auto;html=1;exitX=1;exitY=0.25;exitDx=0;exitDy=0;entryX=0;entryY=0.5;entryDx=0;entryDy=0;curved=1;" edge="1" parent="1" source="7HvIkFNTZdIT3L6Ro3NP-29" target="7HvIkFNTZdIT3L6Ro3NP-30">
          <mxGeometry relative="1" as="geometry" />
        </mxCell>
        <mxCell id="7HvIkFNTZdIT3L6Ro3NP-26" style="edgeStyle=orthogonalEdgeStyle;rounded=0;orthogonalLoop=1;jettySize=auto;html=1;exitX=1;exitY=1;exitDx=0;exitDy=0;entryX=0.5;entryY=0;entryDx=0;entryDy=0;curved=1;" edge="1" parent="1" source="7HvIkFNTZdIT3L6Ro3NP-29" target="7HvIkFNTZdIT3L6Ro3NP-21">
          <mxGeometry relative="1" as="geometry" />
        </mxCell>
        <mxCell id="7HvIkFNTZdIT3L6Ro3NP-27" style="edgeStyle=orthogonalEdgeStyle;rounded=0;orthogonalLoop=1;jettySize=auto;html=1;exitX=0.5;exitY=0;exitDx=0;exitDy=0;entryX=0;entryY=0.5;entryDx=0;entryDy=0;curved=1;" edge="1" parent="1" source="7HvIkFNTZdIT3L6Ro3NP-29" target="7HvIkFNTZdIT3L6Ro3NP-23">
          <mxGeometry relative="1" as="geometry" />
        </mxCell>
        <mxCell id="7HvIkFNTZdIT3L6Ro3NP-28" style="edgeStyle=orthogonalEdgeStyle;rounded=0;orthogonalLoop=1;jettySize=auto;html=1;exitX=1;exitY=0.5;exitDx=0;exitDy=0;entryX=0;entryY=0.5;entryDx=0;entryDy=0;" edge="1" parent="1" source="7HvIkFNTZdIT3L6Ro3NP-29" target="7HvIkFNTZdIT3L6Ro3NP-31">
          <mxGeometry relative="1" as="geometry" />
        </mxCell>
        <mxCell id="7HvIkFNTZdIT3L6Ro3NP-29" value="Жизненный цикл заказа" style="rounded=1;whiteSpace=wrap;html=1;" vertex="1" parent="1">
          <mxGeometry x="2000" y="-660" width="120" height="60" as="geometry" />
        </mxCell>
        <mxCell id="7HvIkFNTZdIT3L6Ro3NP-30" value="Выставление счетов клиентам" style="rounded=1;whiteSpace=wrap;html=1;" vertex="1" parent="1">
          <mxGeometry x="2360" y="-810" width="120" height="60" as="geometry" />
        </mxCell>
        <mxCell id="7HvIkFNTZdIT3L6Ro3NP-31" value="Начисления воркерам" style="rounded=1;whiteSpace=wrap;html=1;" vertex="1" parent="1">
          <mxGeometry x="2360" y="-660" width="120" height="60" as="geometry" />
        </mxCell>
        <mxCell id="7HvIkFNTZdIT3L6Ro3NP-32" value="Интегарция с furtune" style="rounded=1;whiteSpace=wrap;html=1;" vertex="1" parent="1">
          <mxGeometry x="2470" y="-270" width="120" height="60" as="geometry" />
        </mxCell>
      </root>
    </mxGraphModel>
  </diagram>
</mxfile>
